# AST/ASF file generated using VICON BodyLanguage
# -----------------------------------------------
:version 1.10
:name VICON
:units
  mass 1.0
  length 0.45
  angle deg
:documentation
   .ast/.asf automatically generated from VICON data using
   VICON BodyBuilder and BodyLanguage model FoxedUp or BRILLIANT.MOD
:root
   order TX TY TZ RX RY RZ
   axis XYZ
   position 0 0 0  
   orientation 0 0 0 
:bonedata
  begin
     id 1 
     name lhipjoint
     direction 0.440178 -0.822639 0.359871 
     length 2.53113 
     axis 0 0 0  XYZ
  end
  begin
     id 2 
     name lfemur
     direction 0.34202 -0.939693 0  
     length 7.88132  
     axis 0 0 20  XYZ
    dof rx ry rz
    limits (-160.0 20.0)
           (-70.0 70.0)
           (-60.0 70.0)
  end
  begin
     id 3 
     name ltibia
     direction 0.34202 -0.939693 0   
     length 8.43783   
     axis 0 0 20   XYZ
    dof rx
    limits (-10.0 170.0)
  end
  begin
     id 4 
     name lfoot
     direction 0.0886351 -0.243523 0.965837   
     length 2.63414   
     axis -90 7.62852e-016 20   XYZ
    dof rx rz
    limits (-45.0 90.0)
           (-70.0 20.0)
  end
  begin
     id 5 
     name ltoes
     direction 1.53703e-011 -4.21717e-011 1   
     length 1.31427   
     axis -90 7.62852e-016 20   XYZ
    dof rx
    limits (-90.0 20.0)
  end
  begin
     id 6 
     name rhipjoint
     direction -0.399779 -0.839773 0.367367   
     length 2.47948  
     axis 0 0 0  XYZ 
  end
  begin
     id 7 
     name rfemur
     direction -0.34202 -0.939693 0   
     length 7.74806   
     axis 0 0 -20   XYZ
    dof rx ry rz
    limits (-160.0 20.0)
           (-70.0 70.0)
           (-70.0 60.0)
  end
  begin
     id 8 
     name rtibia
     direction -0.34202 -0.939693 0   
     length 8.74432   
     axis 0 0 -20   XYZ
    dof rx
    limits (-10.0 170.0)
 end
 begin
     id 9 
     name rfoot
     direction -0.108514 -0.298139 0.948334   
     length 2.66102  
     axis -90 -7.62852e-016 -20   XYZ
    dof rx rz
    limits (-45.0 90.0)
           (-20.0 70.0)
  end
  begin
     id 10 
     name rtoes
     direction -1.53392e-011 -4.22077e-011 1   
     length 1.31983   
     axis -90 -7.62852e-016 -20   XYZ
    dof rx
    limits (-90.0 20.0)
  end
  begin
     id 11 
     name lowerback
     direction 0.0113257 0.999866 0.0118602   
     length 2.58694   
     axis 0 0 0   XYZ
    dof rx ry rz
    limits (-20.0 45.0)
           (-30.0 30.0)
           (-30.0 30.0)
  end
  begin
     id 12 
     name upperback
     direction -0.0164747 0.995193 -0.0965375   
     length 2.52368   
     axis 0 0 0   XYZ
    dof rx ry rz
    limits (-20.0 45.0)
           (-30.0 30.0)
           (-30.0 30.0)
  end
  begin
     id 13 
     name thorax
     direction -0.0194301 0.99433 -0.104552   
     length 2.56099   
     axis 0 0 0   XYZ
    dof rx ry rz
    limits (-20.0 45.0)
           (-30.0 30.0)
           (-30.0 30.0)
  end
  begin
     id 14 
     name lowerneck
     direction 0.0148543 0.995587 -0.092657   
     length 1.71582   
     axis 0 0 0   XYZ
    dof rx ry rz
    limits (-20.0 45.0)
           (-30.0 30.0)
           (-30.0 30.0)
  end
  begin
     id 15 
     name upperneck
     direction -0.0135467 0.993656 -0.111639   
     length 1.68937   
     axis 0 0 0   XYZ
    dof rx ry rz
    limits (-20.0 45.0)
           (-30.0 30.0)
           (-30.0 30.0)
  end
  begin
     id 16
     name head
     direction -0.00615349 0.999547 -0.029448  
     length 1.7462  
     axis 0 0 0   XYZ
    dof rx ry rz
    limits (-20.0 45.0)
           (-30.0 30.0)
           (-30.0 30.0)
  end
  begin
     id 17 
     name lclavicle
     direction 0.988267 0.149885 0.0293713  
     length 4.47222  
     axis 0 0 0   XYZ
    dof ry rz
    limits (-20.0 10.0)
           (0.0 20.0)
  end
  begin
     id 18 
     name lhumerus
     direction 1 -4.48986e-011 -1.14833e-027   
     length 5.37148   
     axis 180 -30 -90   XYZ
    dof rx ry rz
    limits (-60.0 90.0)
           (-90.0 90.0)
           (-90.0 90.0)
  end
  begin
     id 19
     name lradius
     direction 0.999998 0.00170963 -0.000987055   
     length 3.94212   
     axis 180 -30 -90   XYZ
    dof rx
    limits (-10.0 170.0)
  end
  begin
     id 20
     name lwrist
     direction 0.999998 7.53149e-005 -0.00194706   
     length 1.97106   
     axis 4.65056e-015 90 90   XYZ
    dof ry
    limits (-180.0 0.0)
 end
  begin
     id 21 
     name lhand
     direction 1 -4.48973e-011 -1.31746e-026   
     length 1.17917   
     axis 8.4065e-015 90 90   XYZ
    dof rx rz
    limits (-90.0 90.0)
           (-45.0 45.0)
  end
  begin
     id 22 
     name lfingers
     direction 1 -4.49107e-011 -2.63492e-026   
     length 0.950679   
     axis 1.6813e-014 90 90   XYZ
    dof rx
    limits (0.0 90.0)
  end
  begin
     id 23
     name lthumb
     direction 0.707107 -6.35048e-011 0.707107   
     length 1.36499   
     axis -90 45 2.85299e-015   XYZ
    dof rx rz
    limits (-45.0 45.0)
           (-45.0 45.0)
  end
  begin
     id 24 
     name rclavicle
     direction -0.996699 0.0642895 -0.0495725   
     length 4.62611  
     axis 0 0 0   XYZ 
    dof ry rz
    limits (-10.0 20.0)
           (-20.0 0.0)
  end
  begin
     id 25 
     name rhumerus
     direction -1 -4.48919e-011 -2.41059e-027  
     length 5.4981   
     axis 180 30 90   XYZ
    dof rx ry rz
    limits (-90.0 60.0)
           (-90.0 90.0)
           (-90.0 90.0)
  end
  begin
     id 26 
     name rradius
     direction -0.999999 0.00118101 -0.000681858   
     length 3.48381   
     axis 180 30 90   XYZ
    dof rx
    limits (-10.0 170.0)
  end
  begin
     id 27 
     name rwrist
     direction -0.999999 0.000321823 -0.00132288   
     length 1.7419   
     axis 4.65056e-015 -90 -90   XYZ
    dof ry
    limits (-180.0 0.0)
  end
  begin
     id 28
     name rhand
     direction -1 -4.49022e-011 -1.31746e-026   
     length 1.34932   
     axis 8.4065e-015 -90 -90   XYZ
    dof rx rz
    limits (-90.0 90.0)
           (-45.0 45.0)
  end
  begin
     id 29
     name rfingers
     direction -1 -4.49178e-011 -2.63492e-026   
     length 1.08785   
     axis 1.6813e-014 -90 -90   XYZ
    dof rx
    limits (0.0 90.0)
  end
  begin
     id 30
     name rthumb
     direction -0.707107 -6.34713e-011 0.707107   
     length 1.56195   
     axis -90 -45 -2.85299e-015   XYZ
    dof rx rz
    limits (-45.0 45.0)
           (-45.0 45.0)
  end
:hierarchy
  begin
    root lhipjoint rhipjoint lowerback
    lhipjoint lfemur
    lfemur ltibia
    ltibia lfoot
    lfoot ltoes
    rhipjoint rfemur
    rfemur rtibia
    rtibia rfoot
    rfoot rtoes
    lowerback upperback
    upperback thorax
    thorax lowerneck lclavicle rclavicle
    lowerneck upperneck
    upperneck head
    lclavicle lhumerus
    lhumerus lradius
    lradius lwrist
    lwrist lhand lthumb
    lhand lfingers
    rclavicle rhumerus
    rhumerus rradius
    rradius rwrist
    rwrist rhand rthumb
    rhand rfingers
  end

#!OML:ASF X:\für Bonn\!DataBase\2005_08_10_Bjorn_Final\c3d\bjorn.ASF
:FULLY-SPECIFIED
:DEGREES
16
root 30.771 18.3523 -1.33658 187.126 -5.52442 -180.513
lowerback 1.70819 2.57499 -1.33899
upperback 9.18357 2.77618 -3.15504
thorax 8.79383 1.01745 -2.48637
lowerneck 0.913293 5.43111 3.77664
upperneck -3.45218 7.07847 -7.42762
head -0.818575 3.5729 -3.07246
rclavicle 7.95139e-016 1.90833e-014
rhumerus -32.8781 -4.69967 -98.6955
rradius 51.1728
rwrist -3.77844
rhand -15.9311 20.1009
rfingers 7.12502
rthumb 10.2666 -9.62851
lclavicle 7.95139e-016 1.90833e-014
lhumerus -39.5654 -23.0343 94.4972
lradius 53.5314
lwrist -3.13916
lhand -25.2085 -17.7491
lfingers 7.12502
lthumb 1.31021 12.2266
rfemur -25.1353 -4.0583 11.5258
rtibia 61.3959
rfoot -21.8176 16.1431
rtoes -20.0761
lfemur -10.4316 3.4744 -26.0285
ltibia 40.4932
lfoot -28.518 -2.09054
ltoes -9.05379
17
root 30.7272 18.307 -1.41297 186.732 -5.69249 -180.588
lowerback 2.379 2.63971 -1.39646
upperback 9.36975 2.78905 -3.25543
thorax 8.6105 0.999581 -2.58289
lowerneck 0.920906 5.44985 3.77024
upperneck -4.10383 7.06189 -7.46325
head -1.02791 3.56703 -3.10134
rclavicle 3.1408e-014 5.1684e-014
rhumerus -33.1771 -4.63329 -98.712
rradius 50.864
rwrist -3.79435
rhand -16.5885 20.8438
rfingers 7.12502
rthumb 9.63239 -8.91595
lclavicle 3.1408e-014 5.1684e-014
lhumerus -38.9892 -23.577 94.1898
lradius 53.815
lwrist -3.06237
lhand -25.5745 -18.0171
lfingers 7.12502
lthumb 0.956693 11.9605
rfemur -25.9842 -4.17827 11.3939
rtibia 62.5964
rfoot -21.702 16.5089
rtoes -20.43
lfemur -10.0746 2.92187 -26.3037
ltibia 41.2695
lfoot -28.8154 -1.3051
ltoes -10.8159
18
root 30.6837 18.2585 -1.49108 186.352 -5.87544 -180.6
lowerback 3.01753 2.6807 -1.42217
upperback 9.55771 2.76865 -3.31769
thorax 8.44735 0.966648 -2.65738
lowerneck 0.845042 5.48555 3.66306
upperneck -4.67415 7.06931 -7.41307
head -1.20228 3.57043 -3.07829
rclavicle -2.8625e-014 -4.77083e-015
rhumerus -33.4786 -4.78813 -98.7326
rradius 50.4913
rwrist -3.51378
rhand -17.2435 21.5577
rfingers 7.12502
rthumb 9.00036 -8.23032
lclavicle -2.8625e-014 -4.77083e-015
lhumerus -38.3429 -23.9513 93.8892
lradius 54.1462
lwrist -3.13411
lhand -26.2396 -18.6756
lfingers 7.12502
lthumb 0.314291 11.3039
rfemur -26.8927 -4.26799 11.3491
rtibia 63.6904
rfoot -21.6257 16.8092
rtoes -20.5606
lfemur -9.7211 2.43145 -26.4985
ltibia 42.0472
lfoot -29.1022 -0.698811
ltoes -12.2456
19
root 30.6388 18.2087 -1.57174 186.02 -6.07312 -180.612
lowerback 3.60334 2.71447 -1.44107
upperback 9.75042 2.73967 -3.37558
thorax 8.32122 0.929705 -2.72983
lowerneck 0.707821 5.52726 3.51507
upperneck -5.26673 7.08154 -7.30151
head -1.37674 3.57363 -3.02619
rclavicle 2.66371e-014 -3.73715e-014
rhumerus -33.716 -4.77947 -98.6711
rradius 50.1053
rwrist -3.33748
rhand -17.8399 22.1599
rfingers 7.12502
rthumb 8.42489 -7.65203
lclavicle 2.66371e-014 -3.73715e-014
lhumerus -37.8304 -24.4748 93.5343
lradius 54.7903
lwrist -2.99534
lhand -26.9658 -19.4359
lfingers 7.12502
lthumb -0.387053 10.5435
rfemur -27.8649 -4.33684 11.3132
rtibia 64.6765
rfoot -21.657 17.0042
rtoes -21.0204
lfemur -9.37523 1.92195 -26.7038
ltibia 42.7654
lfoot -29.3911 -0.126128
ltoes -13.6098
20
root 30.5934 18.1558 -1.65488 185.684 -6.26968 -180.606
lowerback 4.16243 2.74661 -1.4361
upperback 9.9696 2.70418 -3.43366
thorax 8.24224 0.88916 -2.81566
lowerneck 0.424005 5.56087 3.34999
upperneck -5.77599 7.08378 -7.15231
head -1.50129 3.56702 -2.95052
rclavicle -2.82274e-014 -3.81667e-014
rhumerus -33.9037 -4.97549 -98.597
rradius 49.6605
rwrist -2.9301
rhand -18.3905 22.6422
rfingers 7.12502
rthumb 7.89348 -7.1904
lclavicle -2.82274e-014 -3.81667e-014
lhumerus -37.1125 -24.7438 93.2513
lradius 55.3593
lwrist -2.95573
lhand -27.5755 -20.0359
lfingers 7.12502
lthumb -0.97588 9.94166
rfemur -28.8618 -4.35442 11.3053
rtibia 65.5385
rfoot -21.6788 17.1416
rtoes -21.2581
lfemur -8.95891 1.48271 -26.8824
ltibia 43.4062
lfoot -29.6805 0.219269
ltoes -14.2995
21
root 30.5473 18.1086 -1.74409 185.381 -6.48917 -180.58
lowerback 4.6209 2.77594 -1.4122
upperback 10.2238 2.66569 -3.48599
thorax 8.26222 0.846851 -2.90399
lowerneck 0.102212 5.59592 3.15191
upperneck -6.31838 7.08606 -6.93852
head -1.63345 3.55788 -2.84752
rclavicle 1.31198e-014 -2.06736e-014
rhumerus -34.0491 -5.18379 -98.4871
rradius 49.2596
rwrist -2.65753
rhand -18.8192 23.0189
rfingers 7.12502
rthumb 7.47966 -6.82884
lclavicle 1.31198e-014 -2.06736e-014
lhumerus -36.1948 -25.3076 92.8342
lradius 56.036
lwrist -2.61384
lhand -28.2093 -20.5255
lfingers 7.12502
lthumb -1.58808 9.44837
rfemur -29.9395 -4.34563 11.3332
rtibia 66.2508
rfoot -21.5308 17.3117
rtoes -21.0692
lfemur -8.50805 1.04868 -27.0314
ltibia 43.9427
lfoot -29.9635 0.506368
ltoes -14.8028
22
root 30.4987 18.0629 -1.84135 185.127 -6.71938 -180.531
lowerback 4.93923 2.77174 -1.40518
upperback 10.501 2.58772 -3.50559
thorax 8.38516 0.782619 -2.94594
lowerneck -0.299746 5.6686 2.9424
upperneck -6.83419 7.13774 -6.71421
head -1.74129 3.57029 -2.73558
rclavicle 2.26615e-014 -3.49861e-014
rhumerus -34.2775 -5.24093 -98.2884
rradius 48.9715
rwrist -2.60032
rhand -19.1034 23.3488
rfingers 7.12502
rthumb 7.20537 -6.50856
lclavicle 2.26615e-014 -3.49861e-014
lhumerus -35.213 -25.6864 92.3953
lradius 56.8352
lwrist -2.451
lhand -28.7836 -20.8393
lfingers 7.12502
lthumb -2.14274 9.12964
rfemur -31.0879 -4.29683 11.3795
rtibia 66.825
rfoot -21.3065 17.4828
rtoes -20.1171
lfemur -8.03139 0.674378 -27.1564
ltibia 44.3802
lfoot -30.2487 0.738323
ltoes -15.3303
23
root 30.4485 18.0139 -1.94336 184.932 -6.95274 -180.482
lowerback 5.17419 2.77244 -1.40084
upperback 10.7407 2.52844 -3.51908
thorax 8.51575 0.731306 -2.97644
lowerneck -0.648909 5.72353 2.77623
upperneck -7.30246 7.1719 -6.48553
head -1.84326 3.57342 -2.63126
rclavicle 8.34896e-015 -6.52014e-014
rhumerus -34.5469 -5.49491 -98.0589
rradius 48.667
rwrist -2.56917
rhand -19.2119 23.5177
rfingers 7.12502
rthumb 7.10059 -6.34317
lclavicle 8.34896e-015 -6.52014e-014
lhumerus -34.314 -26.0397 91.9746
lradius 57.7839
lwrist -2.32075
lhand -29.3296 -21.0298
lfingers 7.12502
lthumb -2.66999 8.9332
rfemur -32.2746 -4.2625 11.4207
rtibia 67.2915
rfoot -21.065 17.6624
rtoes -18.6933
lfemur -7.541 0.261599 -27.2937
ltibia 44.7198
lfoot -30.5828 0.899143
ltoes -15.3211
24
root 30.3981 17.9634 -2.0466 184.764 -7.1874 -180.392
lowerback 5.41862 2.74687 -1.37966
upperback 10.8991 2.44718 -3.50104
thorax 8.54813 0.676102 -2.98083
lowerneck -0.850742 5.78095 2.61226
upperneck -7.74317 7.21693 -6.26247
head -1.96222 3.5852 -2.53513
rclavicle 2.34566e-014 1.82882e-014
rhumerus -34.9146 -5.61746 -97.7656
rradius 48.3445
rwrist -2.66083
rhand -19.2519 23.3935
rfingers 7.12502
rthumb 7.062 -6.46872
lclavicle 2.34566e-014 1.82882e-014
lhumerus -33.6434 -26.1364 91.6487
lradius 58.8944
lwrist -2.36247
lhand -29.7578 -21.1873
lfingers 7.12502
lthumb -3.08358 8.77018
rfemur -33.5071 -4.2092 11.4987
rtibia 67.6817
rfoot -20.8947 17.7763
rtoes -17.7771
lfemur -7.04117 -0.112883 -27.3804
ltibia 44.9622
lfoot -30.9191 0.973446
ltoes -15.3022
25
root 30.3477 17.9099 -2.14907 184.615 -7.43337 -180.299
lowerback 5.65191 2.70116 -1.38674
upperback 11.0337 2.34348 -3.45511
thorax 8.55627 0.608579 -2.93868
lowerneck -0.891773 5.85985 2.46774
upperneck -8.25771 7.28992 -6.07144
head -2.13179 3.61338 -2.46292
rclavicle -3.18055e-014 -2.8625e-014
rhumerus -35.5104 -5.48048 -97.4506
rradius 48.2302
rwrist -2.92312
rhand -19.3455 22.9549
rfingers 7.12502
rthumb 6.97165 -6.91029
lclavicle -3.18055e-014 -2.8625e-014
lhumerus -32.9592 -26.2519 91.3386
lradius 60.1018
lwrist -2.12275
lhand -30.1429 -21.2586
lfingers 7.12502
lthumb -3.45544 8.69319
rfemur -34.7563 -4.1688 11.5765
rtibia 68.007
rfoot -20.8213 17.8449
rtoes -17.2126
lfemur -6.50762 -0.443003 -27.4544
ltibia 45.0903
lfoot -31.2578 0.950581
ltoes -15.0337
26
root 30.2961 17.8563 -2.25026 184.487 -7.6995 -180.189
lowerback 5.86467 2.6185 -1.393
upperback 11.1469 2.19558 -3.38884
thorax 8.54971 0.520706 -2.87436
lowerneck -0.876977 5.95126 2.33684
upperneck -8.73949 7.38144 -5.93117
head -2.29879 3.65241 -2.4118
rclavicle -3.10104e-014 -5.48646e-014
rhumerus -36.1047 -5.26108 -97.1229
rradius 48.0233
rwrist -3.25082
rhand -19.4679 22.4687
rfingers 7.12502
rthumb 6.85353 -7.40034
lclavicle -3.10104e-014 -5.48646e-014
lhumerus -32.349 -26.2157 91.078
lradius 61.4667
lwrist -1.86072
lhand -30.5086 -21.3145
lfingers 7.12502
lthumb -3.80863 8.63121
rfemur -36.0595 -4.18272 11.675
rtibia 68.2881
rfoot -20.9101 17.7283
rtoes -17.611
lfemur -5.93676 -0.839958 -27.521
ltibia 45.0734
lfoot -31.532 0.922075
ltoes -14.5528
